<svg width="23" height="36" viewBox="0 0 23 36" fill="none" xmlns="http://www.w3.org/2000/svg">
<g style="mix-blend-mode:exclusion">
<path d="M9.2 13.5V36H0V22.5C0 20.1131 0.969283 17.8239 2.69462 16.136C4.41995 14.4482 6.76001 13.5 9.2 13.5Z" fill="white"/>
<path d="M9.2 4.5C9.2 2.01472 7.14051 0 4.6 0C2.05949 0 0 2.01472 0 4.5C0 6.98528 2.05949 9 4.6 9C7.14051 9 9.2 6.98528 9.2 4.5Z" fill="white"/>
<path d="M22.9998 18C22.9998 15.5147 20.9403 13.5 18.3998 13.5C15.8593 13.5 13.7998 15.5147 13.7998 18C13.7998 20.4853 15.8593 22.5 18.3998 22.5C20.9403 22.5 22.9998 20.4853 22.9998 18Z" fill="white"/>
</g>
</svg>
