<svg width="15" height="15" viewBox="0 0 15 15" fill="none" xmlns="http://www.w3.org/2000/svg">
<g style="mix-blend-mode:exclusion">
<path d="M9.99788 4.99846C8.67276 5.00069 7.40256 5.52808 6.46556 6.46508C5.52856 7.40208 5.00117 8.67228 4.99894 9.9974C4.01114 9.99677 3.0457 9.70332 2.22463 9.15414C1.40357 8.60495 0.763747 7.82469 0.386023 6.91196C0.0082988 5.99924 -0.090367 4.99502 0.102497 4.02623C0.295361 3.05744 0.771089 2.16757 1.46957 1.46909C2.16805 0.770614 3.05791 0.294873 4.0267 0.102009C4.99549 -0.0908553 5.99972 0.00781052 6.91244 0.385535C7.82517 0.763259 8.60543 1.40309 9.15461 2.22415C9.70379 3.04522 9.99725 4.01066 9.99788 4.99846Z" fill="white"/>
<path d="M15 9.99894C15 11.325 14.4732 12.5968 13.5355 13.5345C12.5979 14.4722 11.3261 14.9989 10 14.9989C8.67392 14.9989 7.40215 14.4722 6.46447 13.5345C5.52679 12.5968 5 11.325 5 9.99894C6.32511 9.9967 7.59532 9.46931 8.53232 8.53231C9.46931 7.59532 9.9967 6.32511 9.99894 5C11.3243 5.00224 12.5947 5.52956 13.532 6.4665C14.4693 7.40344 14.9972 8.67363 15 9.99894Z" fill="white"/>
</g>
</svg>
